<?xml version="1.0" encoding="UTF-8"?>
<svg width="34px" height="19px" viewBox="0 0 34 19" version="1.1" xmlns="http://www.w3.org/2000/svg" xmlns:xlink="http://www.w3.org/1999/xlink">
    <title>uncommon-eye</title>
    <defs>
        <polygon id="path-1" points="0 0 33.9387 0 33.9387 18.7589445 0 18.7589445"></polygon>
    </defs>
    <g id="Page-1" stroke="none" stroke-width="1" fill="none" fill-rule="evenodd">
        <g id="uncommon-eye">
            <g id="Group-3">
                <mask id="mask-2" fill="white">
                    <use xlink:href="#path-1"></use>
                </mask>
                <g id="Clip-2"></g>
                <path d="M33.939,9.399 C33.368,10.015 32.827,10.636 32.247,11.218 C29.989,13.483 27.476,15.405 24.602,16.832 C22.801,17.725 20.918,18.357 18.92,18.627 C16.656,18.934 14.439,18.695 12.264,18.017 C9.802,17.251 7.58,16.022 5.506,14.512 C3.528,13.07 1.725,11.435 0.149,9.556 C0.103,9.501 0.059,9.445 0,9.37 C0.287,9.038 0.56,8.701 0.855,8.383 C2.757,6.335 4.876,4.543 7.254,3.069 C9.21,1.857 11.284,0.919 13.534,0.395 C16.487,-0.292 19.381,-0.065 22.231,0.929 C24.731,1.801 26.976,3.132 29.069,4.737 C30.533,5.859 31.884,7.103 33.131,8.46 C33.403,8.755 33.655,9.067 33.939,9.399 M9.23,9.38 C9.232,13.639 12.699,17.102 16.96,17.1000009 C21.223,17.099 24.689,13.636 24.6840054,9.376 C24.679,4.965 21.008,1.556 16.779,1.653 C12.781,1.745 9.249,5.013 9.23,9.38 M31.951,9.378 C29.592,6.863 26.958,4.757 23.868,3.249 C25.374,5.025 26.172,7.064 26.169,9.392 C26.167,11.722 25.36,13.76 23.843,15.529 C26.944,14.009 29.587,11.9 31.951,9.378 M10.038,15.502 C8.544,13.721 7.744,11.687 7.749,9.355 C7.753,7.032 8.562,5.007 10.058,3.237 C6.96,4.758 4.319,6.864 1.966,9.378 C4.315,11.887 6.948,13.989 10.038,15.502" id="Fill-1" fill="#FFFFFF" mask="url(#mask-2)"></path>
            </g>
            <path d="M16.9556,14.5611 C14.3726,14.6321 11.7646,12.4941 11.7625997,9.3611 C11.7616,6.5221 14.1036,4.2001 16.8916,4.1781 C19.7306,4.1551 22.1756,6.4541 22.1546,9.4251 C22.1356,12.2701 19.8076,14.5741 16.9556,14.5611 M20.1806,7.2531 L20.1696,7.2071 L19.1896,7.2071 C18.8236,7.2071 18.8236,7.2071 18.7106,6.8611 C18.6076,6.5451 18.5036,6.2301 18.3836,5.8651 C18.2446,6.2961 18.1186,6.6701 18.0036,7.0471 C17.9676,7.1661 17.9166,7.2141 17.7856,7.2111 C17.4366,7.2011 17.0886,7.2071 16.7376,7.2081 C16.6916,7.2081 16.6456,7.2181 16.5566,7.2291 C16.9066,7.4851 17.2156,7.7191 17.5346,7.9381 C17.6496,8.0171 17.6666,8.0861 17.6226,8.2131 C17.4916,8.5911 17.3756,8.9731 17.2426,9.3881 C17.5706,9.1511 17.8806,8.9521 18.1606,8.7161 C18.3346,8.5711 18.4496,8.5881 18.6126,8.7181 C18.8916,8.9411 19.1886,9.1411 19.4766,9.3511 C19.4886,9.3431 19.4996,9.3341 19.5096,9.3251 C19.3726,8.8971 19.2346,8.4691 19.0976,8.0441 C19.4696,7.7721 19.8256,7.5131 20.1806,7.2531" id="Fill-4" fill="#FFFFFF"></path>
        </g>
    </g>
</svg>