<?xml version="1.0" encoding="UTF-8"?>
<svg width="160px" height="82px" viewBox="0 0 160 82" version="1.1" xmlns="http://www.w3.org/2000/svg" xmlns:xlink="http://www.w3.org/1999/xlink">
    <title>uncommon-logo-white</title>
    <g id="Page-1" stroke="none" stroke-width="1" fill="none" fill-rule="evenodd">
        <g id="uncommon-logo-white" transform="translate(-0.000400, 0.000500)" fill="#FFFFFF">
            <path d="M0.9906,0 L3.7306,0 L3.7306,15.38 C3.7306,19.077 5.5786,21.024 9.1756,21.024 C12.8066,21.024 14.6876,19.044 14.6876,15.446 L14.6876,0 L17.3936,0 L17.3936,15.578 C17.3936,20.925 14.2916,23.599 9.1756,23.599 C4.0596,23.599 0.9906,20.925 0.9906,15.578 L0.9906,0 Z" id="Fill-1"></path>
            <path d="M21.5165,5.6108 L24.1565,5.6108 L24.1565,7.2938 L24.2225,7.2938 C25.1475,6.0728 27.0945,5.1158 29.1405,5.1158 C32.9035,5.1158 35.4445,7.5578 35.4445,11.6178 L35.4445,23.1038 L32.7715,23.1038 L32.7715,12.4758 C32.7715,9.3078 31.4845,7.5908 28.7445,7.5908 C26.0715,7.5908 24.2225,9.1758 24.2225,11.9478 L24.2225,23.1038 L21.5165,23.1038 L21.5165,5.6108 Z" id="Fill-3"></path>
            <path d="M53.6603,16.9315 C53.0993,20.9915 50.2273,23.5985 46.3663,23.5985 C41.7783,23.5985 38.4123,20.2315 38.4123,14.3575 C38.4123,8.5155 41.9763,5.1155 46.3663,5.1155 C50.1613,5.1155 52.9673,7.7565 53.5283,11.5185 L50.9873,12.0465 C50.5253,9.7365 49.2043,7.5585 46.3663,7.5585 C43.2973,7.5585 41.0853,9.9675 41.0853,14.3575 C41.0853,18.6145 43.1323,21.1565 46.3993,21.1565 C49.2043,21.1565 50.7223,18.7135 51.0533,16.4035 L53.6603,16.9315 Z" id="Fill-5"></path>
            <path d="M68.5754,14.3572 C68.5754,9.9342 66.3314,7.5582 63.4274,7.5582 C60.4564,7.5582 58.1464,9.8682 58.1464,14.3572 C58.1464,18.8792 60.4894,21.1562 63.4274,21.1562 C66.2654,21.1562 68.5754,18.7802 68.5754,14.3572 M55.4724,14.3572 C55.4724,8.3832 59.2024,5.1162 63.4274,5.1162 C67.5854,5.1162 71.2494,8.3832 71.2494,14.3572 C71.2494,20.3312 67.8164,23.5982 63.4274,23.5982 C58.9714,23.5982 55.4724,20.3312 55.4724,14.3572" id="Fill-7"></path>
            <path d="M74.3815,5.6108 L76.8235,5.6108 L76.8235,7.2938 L76.8905,7.2938 C77.7145,6.0398 79.4645,5.1158 81.3455,5.1158 C83.7215,5.1158 85.2405,6.4028 85.9665,7.6898 L86.0325,7.6898 C86.7915,6.4028 88.5735,5.1158 90.9505,5.1158 C94.6465,5.1158 96.9895,7.4588 96.9895,11.1888 L96.9895,23.1038 L94.3825,23.1038 L94.3825,12.0138 C94.3825,9.1098 93.2605,7.5908 90.8185,7.5908 C88.4085,7.5908 86.9895,9.1418 86.9895,11.7828 L86.9895,23.1038 L84.3815,23.1038 L84.3815,12.0138 C84.3815,9.1098 83.2935,7.5908 80.8175,7.5908 C78.1115,7.5908 77.0555,9.5388 77.0555,11.7828 L77.0555,23.1038 L74.3815,23.1038 L74.3815,5.6108 Z" id="Fill-9"></path>
            <path d="M101.111,5.6108 L103.553,5.6108 L103.553,7.2938 L103.62,7.2938 C104.444,6.0398 106.194,5.1158 108.075,5.1158 C110.451,5.1158 111.97,6.4028 112.696,7.6898 L112.762,7.6898 C113.521,6.4028 115.303,5.1158 117.68,5.1158 C121.376,5.1158 123.719,7.4588 123.719,11.1888 L123.719,23.1038 L121.112,23.1038 L121.112,12.0138 C121.112,9.1098 119.99,7.5908 117.548,7.5908 C115.138,7.5908 113.719,9.1418 113.719,11.7828 L113.719,23.1038 L111.111,23.1038 L111.111,12.0138 C111.111,9.1098 110.023,7.5908 107.547,7.5908 C104.841,7.5908 103.785,9.5388 103.785,11.7828 L103.785,23.1038 L101.111,23.1038 L101.111,5.6108 Z" id="Fill-11"></path>
            <path d="M139.7887,14.3572 C139.7887,9.9342 137.5447,7.5582 134.6407,7.5582 C131.6697,7.5582 129.3597,9.8682 129.3597,14.3572 C129.3597,18.8792 131.7027,21.1562 134.6407,21.1562 C137.4787,21.1562 139.7887,18.7802 139.7887,14.3572 M126.6857,14.3572 C126.6857,8.3832 130.4157,5.1162 134.6407,5.1162 C138.7987,5.1162 142.4617,8.3832 142.4617,14.3572 C142.4617,20.3312 139.0297,23.5982 134.6407,23.5982 C130.1847,23.5982 126.6857,20.3312 126.6857,14.3572" id="Fill-13"></path>
            <path d="M145.5944,5.6108 L148.2354,5.6108 L148.2354,7.2938 L148.3014,7.2938 C149.2254,6.0728 151.1724,5.1158 153.2194,5.1158 C156.9814,5.1158 159.5224,7.5578 159.5224,11.6178 L159.5224,23.1038 L156.8494,23.1038 L156.8494,12.4758 C156.8494,9.3078 155.5624,7.5908 152.8224,7.5908 C150.1494,7.5908 148.3014,9.1758 148.3014,11.9478 L148.3014,23.1038 L145.5944,23.1038 L145.5944,5.6108 Z" id="Fill-15"></path>
            <path d="M3.07,40.3537 C3.07,46.9547 6.073,50.0237 9.968,50.0237 C14.093,50.0237 15.48,47.0537 15.843,43.5217 L18.714,43.8847 C18.285,49.1987 15.183,52.5987 9.968,52.5987 C4.984,52.5987 0.165,49.1987 0.165,40.3537 C0.165,32.3997 4.951,28.5047 9.968,28.5047 C14.952,28.5047 18.021,31.8717 18.648,36.5577 L15.876,37.0527 C15.348,33.9177 13.928,31.1127 9.968,31.1127 C6.271,31.1127 3.07,33.9507 3.07,40.3537" id="Fill-17"></path>
            <path d="M21.8463,34.6108 L24.4203,34.6108 L24.4203,36.4918 L24.4863,36.4918 C25.2453,35.0068 26.7973,34.3138 28.1173,34.3138 C29.0083,34.3138 29.6353,34.6438 29.6353,34.6438 L29.1403,37.3168 C29.1403,37.3168 28.6453,37.0528 27.7543,37.0528 C25.5103,37.0528 24.5523,38.4398 24.5523,41.7068 L24.5523,52.1038 L21.8463,52.1038 L21.8463,34.6108 Z" id="Fill-19"></path>
            <path d="M44.1232,42.0039 C44.0572,39.4629 42.7372,36.5579 38.9412,36.5579 C35.1792,36.5579 33.7592,39.8589 33.7272,42.0039 L44.1232,42.0039 Z M46.4002,48.1429 C45.2452,50.4199 42.9022,52.5989 39.0732,52.5989 C34.3872,52.5989 30.9542,49.0339 30.9542,43.3569 C30.9542,37.6799 34.3212,34.1159 38.9412,34.1159 C43.5292,34.1159 46.7962,37.5149 46.7962,43.3569 L46.7962,44.1489 L33.6612,44.1489 C33.6942,47.2519 35.3772,50.1559 39.0072,50.1559 C42.5392,50.1559 43.5952,47.8789 44.2222,46.7239 L46.4002,48.1429 Z" id="Fill-21"></path>
            <path d="M51.4142,47.4497 C51.4142,49.0337 52.2722,50.1887 54.8802,50.1887 C58.2132,50.1887 59.8312,48.4397 59.8312,46.4927 L59.8312,42.1357 L59.7642,42.1357 C59.5332,42.6307 58.8732,43.2247 55.2762,44.2157 C52.1402,45.0737 51.4142,45.9977 51.4142,47.4497 L51.4142,47.4497 Z M60.0942,50.1887 L60.0282,50.1887 C59.5332,51.0477 57.8172,52.5987 54.6822,52.5987 C50.5892,52.5987 48.7742,50.2877 48.7742,47.6147 C48.7742,44.7107 50.3912,43.2247 54.6482,42.1357 C57.7842,41.3437 59.6652,40.8487 59.6652,39.1327 C59.6652,37.7467 58.6422,36.5247 56.0022,36.5247 C53.2622,36.5247 52.1732,38.0437 51.7442,39.9907 L49.3022,39.2977 C49.8302,36.3597 52.1072,34.1157 55.9032,34.1157 C59.7312,34.1157 62.4712,35.8647 62.4712,40.3207 L62.4712,52.1037 L60.0942,52.1037 L60.0942,50.1887 Z" id="Fill-23"></path>
            <path d="M67.0563,37.0203 L64.6143,37.0203 L64.6143,34.6113 L67.1223,34.6113 L67.1223,30.3203 L69.6963,30.3203 L69.6963,34.6113 L74.0203,34.6113 L74.0203,37.0203 L69.7293,37.0203 L69.7293,46.6903 C69.7293,48.6383 70.0923,49.4963 71.8743,49.4963 L73.1953,49.4963 L73.1953,52.1033 L71.7433,52.1033 C68.3433,52.1033 67.0563,50.2883 67.0563,47.0203 L67.0563,37.0203 Z" id="Fill-25"></path>
            <path d="M77.1864,52.1035 L79.8934,52.1035 L79.8934,34.6105 L77.1864,34.6105 L77.1864,52.1035 Z M76.9884,31.0785 L80.0914,31.0785 L80.0914,28.0095 L76.9884,28.0095 L76.9884,31.0785 Z" id="Fill-27"></path>
            <polygon id="Fill-29" points="82.4001 34.6108 85.1721 34.6108 90.5191 48.3078 90.5851 48.3078 95.9321 34.6108 98.7041 34.6108 91.6411 52.1038 89.4631 52.1038"></polygon>
            <path d="M112.3659,42.0039 C112.2999,39.4629 110.9799,36.5579 107.1839,36.5579 C103.4219,36.5579 102.0019,39.8589 101.9699,42.0039 L112.3659,42.0039 Z M114.6429,48.1429 C113.4879,50.4199 111.1449,52.5989 107.3159,52.5989 C102.6289,52.5989 99.1969,49.0339 99.1969,43.3569 C99.1969,37.6799 102.5629,34.1159 107.1839,34.1159 C111.7719,34.1159 115.0389,37.5149 115.0389,43.3569 L115.0389,44.1489 L101.9029,44.1489 C101.9359,47.2519 103.6189,50.1559 107.2499,50.1559 C110.7819,50.1559 111.8379,47.8789 112.4649,46.7239 L114.6429,48.1429 Z" id="Fill-30"></path>
            <path d="M2.872,72.5881 C3.499,76.8131 4.918,79.0241 9.374,79.0241 C13.004,79.0241 14.589,77.0771 14.589,75.0301 C14.589,72.9511 13.764,71.9611 8.219,70.1461 C3.268,68.5611 1.057,66.8781 1.057,63.5781 C1.057,60.3761 3.697,57.5051 8.318,57.5051 C12.476,57.5051 15.777,59.5511 16.371,63.8751 L13.599,64.4691 C13.103,61.9271 11.849,60.1121 8.318,60.1121 C5.248,60.1121 3.829,61.7291 3.829,63.5781 C3.829,65.2611 4.522,66.0861 9.572,67.7361 C15.843,69.7831 17.328,71.4661 17.328,74.8981 C17.328,78.4961 14.523,81.5981 9.275,81.5981 C3.697,81.5981 0.694,78.6281 0,73.1491 L2.872,72.5881 Z" id="Fill-31"></path>
            <path d="M20.7575,66.0203 L18.3155,66.0203 L18.3155,63.6113 L20.8235,63.6113 L20.8235,59.3203 L23.3975,59.3203 L23.3975,63.6113 L27.7215,63.6113 L27.7215,66.0203 L23.4305,66.0203 L23.4305,75.6903 C23.4305,77.6383 23.7935,78.4963 25.5765,78.4963 L26.8965,78.4963 L26.8965,81.1033 L25.4445,81.1033 C22.0445,81.1033 20.7575,79.2883 20.7575,76.0203 L20.7575,66.0203 Z" id="Fill-32"></path>
            <path d="M30.5251,63.6108 L33.2311,63.6108 L33.2311,74.6018 C33.2311,77.8688 34.3871,79.0898 37.2911,79.0898 C39.9311,79.0898 41.3831,77.3738 41.3831,74.4698 L41.3831,63.6108 L44.0571,63.6108 L44.0571,81.1038 L41.4171,81.1038 L41.4171,79.4198 L41.3511,79.4198 C41.3511,79.4198 39.8651,81.5988 36.6971,81.5988 C32.9341,81.5988 30.5251,79.5188 30.5251,74.9978 L30.5251,63.6108 Z" id="Fill-33"></path>
            <path d="M59.6989,69.8818 C59.6989,67.8688 58.1149,65.5578 55.2099,65.5578 C51.7119,65.5578 49.8959,68.0998 49.8959,72.3568 C49.8959,76.6148 51.7119,79.1558 55.2099,79.1558 C57.8499,79.1558 59.6989,77.3078 59.6989,75.2948 L59.6989,69.8818 Z M59.9629,79.4198 L59.8969,79.4198 C59.1709,80.2778 57.3879,81.5988 54.7809,81.5988 C50.1599,81.5988 47.1899,77.9678 47.1899,72.3568 C47.1899,66.6478 50.5559,63.1158 54.7809,63.1158 C57.1569,63.1158 58.7409,64.2378 59.6329,65.2938 L59.6989,65.2938 L59.6989,57.0098 L62.4049,57.0098 L62.4049,81.1038 L59.9629,81.1038 L59.9629,79.4198 Z" id="Fill-34"></path>
            <path d="M66.8914,81.1035 L69.5984,81.1035 L69.5984,63.6105 L66.8914,63.6105 L66.8914,81.1035 Z M66.6934,60.0785 L69.7964,60.0785 L69.7964,57.0095 L66.6934,57.0095 L66.6934,60.0785 Z" id="Fill-35"></path>
            <path d="M86.0324,72.3572 C86.0324,67.9342 83.7884,65.5582 80.8844,65.5582 C77.9134,65.5582 75.6034,67.8682 75.6034,72.3572 C75.6034,76.8792 77.9464,79.1562 80.8844,79.1562 C83.7224,79.1562 86.0324,76.7802 86.0324,72.3572 M72.9294,72.3572 C72.9294,66.3832 76.6594,63.1162 80.8844,63.1162 C85.0424,63.1162 88.7064,66.3832 88.7064,72.3572 C88.7064,78.3312 85.2734,81.5982 80.8844,81.5982 C76.4284,81.5982 72.9294,78.3312 72.9294,72.3572" id="Fill-36"></path>
        </g>
    </g>
</svg>